<svg width="75" height="75" viewBox="0 0 75 75" fill="none" xmlns="http://www.w3.org/2000/svg">
<path d="M44.5312 56.25H9.375L9.36797 20.8734L36.1664 39.4266C36.5583 39.6977 37.0235 39.843 37.5 39.843C37.9765 39.843 38.4417 39.6977 38.8336 39.4266L65.625 20.8828V42.1875H70.3125V18.75C70.3106 17.5074 69.8162 16.3162 68.9375 15.4375C68.0588 14.5588 66.8676 14.0644 65.625 14.0625H9.375C8.13218 14.0637 6.94062 14.558 6.06181 15.4368C5.183 16.3156 4.68874 17.5072 4.6875 18.75V56.25C4.68936 57.4926 5.18382 58.6838 6.06249 59.5625C6.94116 60.4412 8.13237 60.9356 9.375 60.9375H44.5312V56.25ZM60.4664 18.75L37.5 34.65L14.5336 18.75H60.4664Z" fill="black"/>
<path d="M60.9375 65.625C66.1152 65.625 70.3125 61.4277 70.3125 56.25C70.3125 51.0723 66.1152 46.875 60.9375 46.875C55.7598 46.875 51.5625 51.0723 51.5625 56.25C51.5625 61.4277 55.7598 65.625 60.9375 65.625Z" fill="black"/>
</svg>
